<?xml version="1.0" encoding="UTF-8"?>
<svg id="Layer_1" data-name="Layer 1" xmlns="http://www.w3.org/2000/svg" viewBox="0 0 253 253">
  <defs>
    <style>
      .cls-1 {
        fill: #4481c3;
      }
    </style>
  </defs>
  <g id="Icon">
    <path class="cls-1" d="M226.5,96.5c0,10.66-2.05,21.68-5.61,32.77-6.12-2.28-12.61-4.21-19.39-5.76v-26.94h-8.2v11.87h-8.2v-48.94h-14.06v5h-4.69v45h-9.38v-10h-13.96l-.1-10-2.34-47.5-7.03-2.5-7.04-25-7.03,25-7.03,2.5-2.34,47.5v20h-4.69v-10h-18.75v20h-9.37v-50h-25.79v94.82c-.39.58-.76,1.18-1.12,1.77-14.07-22.49-23.88-46.15-23.88-69.59C26.5,44.18,72.79,0,127.45,0,190.39,0,226.5,44.17,226.5,96.5Z"/>
    <path class="cls-1" d="M216.69,140.78c-4.26,10.48-9.68,20.94-15.82,31.16-3.37,5.62-6.96,11.17-10.69,16.6-5.07,7.42-10.4,14.62-15.81,21.53h0c-4.15,1.53-8.88,2.39-13.89,2.39-16.56,0-30-9.4-30-21s13.44-21,30-21c3.82,0,7.47.5,10.82,1.41v-12.16c-3.49-.49-7.11-.75-10.82-.75-27.89,0-50.5,14.55-50.5,32.5s22.61,32.5,50.5,32.5c.9,0,1.8-.02,2.69-.04-6.93,8.28-13.74,15.94-20.01,22.78-.07.08-1.73,1.84-4.34,3.48-2.32,1.45-5.4,2.82-8.78,2.82h-.64c-7.18,0-13.01-6.14-13.15-6.3-.33-.36-.66-.72-.99-1.08-17.75-19.35-39.54-42.62-57.07-67.74,10.77-26.6,52.49-46.42,102.29-46.42,20.67,0,39.96,3.42,56.21,9.32Z"/>
  </g>
</svg>