<?xml version="1.0" encoding="UTF-8"?>
<svg id="Layer_1" data-name="Layer 1" xmlns="http://www.w3.org/2000/svg" viewBox="0 0 500 253">
  <defs>
    <style>
      .cls-1 {
        fill: #4481c3;
      }
    </style>
  </defs>
  <g id="Text">
    <path id="C" class="cls-1" d="M266.2,113.45c-5.54,0-10.65-.88-15.35-2.65s-8.77-4.28-12.2-7.55c-3.43-3.27-6.12-7.12-8.05-11.55-1.93-4.43-2.9-9.32-2.9-14.65s.96-10.22,2.9-14.65c1.93-4.43,4.62-8.28,8.05-11.55,3.43-3.27,7.5-5.78,12.2-7.55,4.7-1.77,9.82-2.65,15.35-2.65,6.46,0,12.25,1.13,17.35,3.4,5.1,2.27,9.35,5.53,12.75,9.8l-12.6,11.4c-2.27-2.67-4.75-4.7-7.45-6.1s-5.72-2.1-9.05-2.1c-2.87,0-5.5.47-7.9,1.4-2.4.93-4.45,2.28-6.15,4.05-1.7,1.77-3.03,3.88-4,6.35-.97,2.47-1.45,5.2-1.45,8.2s.48,5.73,1.45,8.2c.97,2.47,2.3,4.58,4,6.35,1.7,1.77,3.75,3.12,6.15,4.05,2.4.93,5.03,1.4,7.9,1.4,3.33,0,6.35-.7,9.05-2.1s5.18-3.43,7.45-6.1l12.6,11.4c-3.4,4.2-7.65,7.45-12.75,9.75-5.1,2.3-10.88,3.45-17.35,3.45Z"/>
    <path id="i" class="cls-1" d="M310.9,51.85c-3.47,0-6.27-.97-8.4-2.9-2.13-1.93-3.2-4.33-3.2-7.2s1.06-5.27,3.2-7.2c2.13-1.93,4.93-2.9,8.4-2.9s6.27.92,8.4,2.75c2.13,1.83,3.2,4.18,3.2,7.05s-1.05,5.48-3.15,7.45c-2.1,1.97-4.92,2.95-8.45,2.95ZM301.4,112.05v-54.2h19v54.2h-19Z"/>
    <path id="t" class="cls-1" d="M368.1,109.85c-1.6,1.07-3.57,1.85-5.9,2.35-2.33.5-4.77.75-7.3.75-6.93,0-12.34-1.72-16.2-5.15-3.87-3.43-5.8-8.62-5.8-15.55v-20.3h-7.9v-14.1h7.9v-12.1h19v12.1h12.4v14.1h-12.4v20.1c0,1.93.53,3.45,1.6,4.55,1.06,1.1,2.43,1.65,4.1,1.65,2.27,0,4.2-.57,5.8-1.7l4.7,13.3Z"/>
    <path id="y" class="cls-1" d="M429.3,57.85l-23.4,56.4c-1.87,4.67-4.02,8.32-6.45,10.95-2.43,2.63-5.14,4.48-8.1,5.55-2.97,1.07-6.25,1.6-9.85,1.6-2.87,0-5.75-.45-8.65-1.35-2.9-.9-5.25-2.08-7.05-3.55l6.6-13.3c1.13,1,2.45,1.78,3.95,2.35s2.98.85,4.45.85c2.07,0,3.7-.47,4.9-1.4.94-.73,1.78-1.8,2.52-3.2l-23.22-54.9h19.5l13.31,33.12,13.39-33.12h18.1Z"/>
    <path id="S" class="cls-1" d="M255.9,202.45c-5.73,0-11.25-.72-16.55-2.15s-9.62-3.28-12.95-5.55l6.5-14.6c3.13,2,6.75,3.65,10.85,4.95,4.1,1.3,8.18,1.95,12.25,1.95,2.73,0,4.93-.25,6.6-.75,1.67-.5,2.88-1.17,3.65-2,.77-.83,1.15-1.82,1.15-2.95,0-1.6-.73-2.87-2.2-3.8-1.47-.93-3.37-1.7-5.7-2.3-2.33-.6-4.92-1.2-7.75-1.8-2.83-.6-5.67-1.37-8.5-2.3-2.83-.93-5.42-2.15-7.75-3.65-2.33-1.5-4.23-3.47-5.7-5.9-1.47-2.43-2.2-5.52-2.2-9.25,0-4.2,1.15-8,3.45-11.4s5.75-6.13,10.35-8.2c4.6-2.07,10.33-3.1,17.2-3.1,4.6,0,9.12.52,13.55,1.55,4.43,1.03,8.38,2.55,11.85,4.55l-6.1,14.7c-3.33-1.8-6.63-3.15-9.9-4.05-3.27-.9-6.43-1.35-9.5-1.35-2.73,0-4.93.28-6.6.85-1.67.57-2.87,1.32-3.6,2.25-.73.93-1.1,2-1.1,3.2,0,1.53.71,2.75,2.15,3.65,1.43.9,3.33,1.63,5.7,2.2,2.37.57,4.97,1.15,7.8,1.75,2.83.6,5.67,1.35,8.5,2.25,2.83.9,5.42,2.1,7.75,3.6,2.33,1.5,4.22,3.47,5.65,5.9,1.43,2.43,2.15,5.48,2.15,9.15,0,4.07-1.15,7.82-3.45,11.25-2.3,3.43-5.73,6.18-10.3,8.25-4.57,2.07-10.32,3.1-17.25,3.1Z"/>
    <path id="t-2" data-name="t" class="cls-1" d="M330.5,198.85c-1.6,1.07-3.57,1.85-5.9,2.35s-4.77.75-7.3.75c-6.93,0-12.33-1.72-16.2-5.15-3.87-3.43-5.8-8.62-5.8-15.55v-20.3h-7.9v-14.1h7.9v-12.1h19v12.1h12.4v14.1h-12.4v20.1c0,1.93.53,3.45,1.6,4.55,1.07,1.1,2.43,1.65,4.1,1.65,2.27,0,4.2-.57,5.8-1.7l4.7,13.3Z"/>
    <path id="a" class="cls-1" d="M377.65,152c-4.84-4.03-11.65-6.05-20.45-6.05-4.27,0-8.55.55-12.85,1.65-4.3,1.1-7.98,2.65-11.05,4.65l6.4,12.9c1.86-1.47,4.13-2.62,6.8-3.45,2.66-.83,5.3-1.25,7.9-1.25,4,0,6.91.82,8.75,2.45,1.66,1.48,2.58,3.53,2.73,6.15h-10.78c-5.6,0-10.17.65-13.7,1.95-3.53,1.3-6.15,3.17-7.85,5.6s-2.55,5.32-2.55,8.65c0,3.13.78,5.97,2.35,8.5,1.56,2.53,3.85,4.53,6.85,6,3,1.47,6.67,2.2,11,2.2,4.73,0,8.55-.95,11.45-2.85,1.95-1.28,3.47-2.97,4.55-5.07v7.02h17.7v-30.1c0-8.6-2.42-14.92-7.25-18.95ZM362.15,188.4c-1.7,1.03-3.59,1.55-5.65,1.55-2.2,0-3.94-.5-5.2-1.5-1.27-1-1.9-2.33-1.9-4s.62-3,1.85-4c1.23-1,3.38-1.5,6.45-1.5h8.2v4.7c-.8,2.13-2.05,3.72-3.75,4.75Z"/>
    <path id="y-2" data-name="y" class="cls-1" d="M451.5,146.85l-23.4,56.4c-1.87,4.67-4.02,8.31-6.45,10.95-2.43,2.63-5.13,4.48-8.1,5.55-2.97,1.06-6.25,1.6-9.85,1.6-2.87,0-5.75-.45-8.65-1.35-2.9-.9-5.25-2.08-7.05-3.55l6.6-13.3c1.13,1,2.45,1.78,3.95,2.35,1.5.56,2.98.85,4.45.85,2.06,0,3.7-.47,4.9-1.4.94-.73,1.78-1.8,2.52-3.2l-23.22-54.9h19.5l13.31,33.12,13.39-33.12h18.1Z"/>
    <path id="S-2" data-name="S" class="cls-1" d="M473.2,201.95c-4.6,0-9.08-.53-13.45-1.6-4.37-1.07-7.88-2.4-10.55-4l5.7-13c2.53,1.53,5.5,2.75,8.9,3.65,3.4.9,6.73,1.35,10,1.35s5.42-.33,6.65-1c1.23-.67,1.85-1.56,1.85-2.7,0-1.07-.58-1.85-1.75-2.35-1.17-.5-2.7-.88-4.6-1.15-1.9-.27-3.98-.57-6.25-.9-2.27-.33-4.55-.78-6.85-1.35-2.3-.57-4.4-1.43-6.3-2.6-1.9-1.17-3.42-2.75-4.55-4.75-1.13-2-1.7-4.53-1.7-7.6,0-3.47,1.02-6.55,3.05-9.25,2.03-2.7,5.02-4.83,8.95-6.4,3.93-1.57,8.73-2.35,14.4-2.35,3.8,0,7.65.38,11.55,1.15,3.9.77,7.18,1.92,9.85,3.45l-5.7,12.9c-2.67-1.53-5.33-2.58-8-3.15-2.67-.57-5.2-.85-7.6-.85-3.2,0-5.45.37-6.75,1.1-1.3.73-1.95,1.63-1.95,2.7s.57,1.88,1.7,2.45c1.13.57,2.65,1,4.55,1.3,1.9.3,3.98.6,6.25.9,2.27.3,4.55.75,6.85,1.35,2.3.6,4.4,1.48,6.3,2.65,1.9,1.17,3.42,2.73,4.55,4.7,1.13,1.97,1.7,4.48,1.7,7.55,0,3.33-1.02,6.33-3.05,9-2.03,2.67-5.03,4.8-9,6.4-3.97,1.6-8.88,2.4-14.75,2.4Z"/>
  </g>
  <g id="Icon">
    <path class="cls-1" d="M200,96.5c0,10.66-2.05,21.68-5.61,32.77-6.12-2.28-12.61-4.21-19.39-5.76v-26.94h-8.2v11.87h-8.2v-48.94h-14.06v5h-4.69v45h-9.38v-10h-13.96l-.1-10-2.34-47.5-7.03-2.5-7.04-25-7.03,25-7.03,2.5-2.34,47.5v20h-4.69v-10h-18.75v20h-9.37v-50h-25.79v94.82c-.39.58-.76,1.18-1.12,1.77C9.81,143.6,0,119.94,0,96.5,0,44.18,46.29,0,100.95,0,163.89,0,200,44.17,200,96.5Z"/>
    <path class="cls-1" d="M190.19,140.78c-4.26,10.48-9.68,20.94-15.82,31.16-3.37,5.62-6.96,11.17-10.69,16.6-5.07,7.42-10.4,14.62-15.81,21.53h0c-4.15,1.53-8.88,2.39-13.89,2.39-16.56,0-30-9.4-30-21s13.44-21,30-21c3.82,0,7.47.5,10.82,1.41v-12.16c-3.49-.49-7.11-.75-10.82-.75-27.89,0-50.5,14.55-50.5,32.5s22.61,32.5,50.5,32.5c.9,0,1.8-.02,2.69-.04-6.93,8.28-13.74,15.94-20.01,22.78-.07.08-1.73,1.84-4.34,3.48-2.32,1.45-5.4,2.82-8.78,2.82h-.64c-7.18,0-13.01-6.14-13.15-6.3-.33-.36-.66-.72-.99-1.08-17.75-19.35-39.54-42.62-57.07-67.74,10.77-26.6,52.49-46.42,102.29-46.42,20.67,0,39.96,3.42,56.21,9.32Z"/>
  </g>
</svg>